<!--?xml version="1.0" standalone="no"?-->
              <svg id="sw-js-blob-svg" viewBox="0 0 100 100" xmlns="http://www.w3.org/2000/svg" version="1.1">
                    <defs> 
                        <linearGradient id="sw-gradient" x1="0" x2="1" y1="1" y2="0">
                            <stop id="stop1" stop-color="rgba(14, 14, 14, 1)" offset="0%"></stop>
                            <stop id="stop2" stop-color="rgba(14, 14, 14, 1)" offset="100%"></stop>
                        </linearGradient>
                    </defs>
                <path fill="url(#sw-gradient)" d="M22.6,-38.5C29.5,-35.1,35.4,-29.5,38,-22.7C40.6,-15.9,39.9,-8,39.2,-0.4C38.4,7.1,37.7,14.2,34.7,20.4C31.7,26.5,26.5,31.8,20.4,36.3C14.2,40.8,7.1,44.6,-0.1,44.8C-7.4,45,-14.7,41.6,-21.7,37.6C-28.6,33.5,-35.1,28.8,-38.2,22.4C-41.3,16,-41,8,-39.7,0.8C-38.3,-6.5,-36,-13,-32.7,-18.9C-29.4,-24.9,-25,-30.4,-19.4,-34.5C-13.8,-38.7,-6.9,-41.5,0.5,-42.3C7.8,-43.1,15.7,-42,22.6,-38.5Z" width="100%" height="100%" transform="translate(50 50)" stroke-width="0" style="transition: 0.3s;"></path>
              </svg>