<!--?xml version="1.0" standalone="no"?-->
              <svg id="sw-js-blob-svg" viewBox="0 0 100 100" xmlns="http://www.w3.org/2000/svg" version="1.1">
                    <defs> 
                        <linearGradient id="sw-gradient" x1="0" x2="1" y1="1" y2="0">
                            <stop id="stop1" stop-color="rgba(255, 255, 255, 1)" offset="0%"></stop>
                            <stop id="stop2" stop-color="rgba(255, 255, 255, 1)" offset="100%"></stop>
                        </linearGradient>
                    </defs>
                <path fill="url(#sw-gradient)" d="M20.3,-33.9C27,-31.4,33.6,-27.3,37.3,-21.4C41,-15.4,41.9,-7.7,42.3,0.2C42.7,8.2,42.6,16.4,38.8,22.1C34.9,27.7,27.3,30.9,20.2,34.6C13.1,38.2,6.6,42.3,-0.3,42.8C-7.1,43.3,-14.3,40.2,-20.5,36.1C-26.7,31.9,-32,26.7,-36.4,20.6C-40.8,14.4,-44.3,7.2,-43.5,0.5C-42.7,-6.3,-37.7,-12.6,-33.7,-19.5C-29.7,-26.4,-26.8,-33.9,-21.4,-37.1C-15.9,-40.4,-8,-39.4,-0.6,-38.4C6.8,-37.5,13.6,-36.4,20.3,-33.9Z" width="100%" height="100%" transform="translate(50 50)" stroke-width="0" style="transition: 0.3s;"></path>
              </svg>